<svg width="1317" height="872" viewBox="0 0 1317 872" fill="none" xmlns="http://www.w3.org/2000/svg">
<path d="M116.821 336.631L109.948 340.696V348.681V422.687V447.228L131.073 434.738L650.802 127.461C653.441 126.025 655.859 125.417 658.207 125.417C660.799 125.417 663.395 126.15 665.423 127.349L665.424 127.349L1185.34 434.738L1206.47 447.228V422.687V348.681V340.696L1199.59 336.631L665.334 20.649L658.207 16.4339L651.081 20.649L116.821 336.631Z" fill="#2F80ED" stroke="#2F80ED" stroke-width="28"/>
<path d="M327.755 690.737C327.755 747.608 313.251 791.991 284.243 823.889C255.235 855.787 214.851 871.736 163.094 871.736C130.748 871.736 102.157 864.391 77.3222 849.701C52.4877 835.012 33.3911 813.92 20.0346 786.429C6.67816 758.939 0 727.043 0 690.737C0 634.288 14.3993 590.219 43.2001 558.531C71.9988 526.844 112.592 511 164.973 511C215.061 511 254.711 527.263 283.929 559.791C313.146 592.108 327.755 635.756 327.755 690.737ZM75.7559 690.737C75.7559 771.112 105.288 811.299 164.347 811.299C222.782 811.299 251.999 771.112 251.999 690.737C251.999 611.203 222.572 571.437 163.72 571.437C132.834 571.437 110.399 581.72 96.4167 602.285C82.6435 622.85 75.7559 652.335 75.7559 690.737ZM1316.34 690.737C1316.34 747.608 1301.83 791.991 1272.83 823.889C1243.81 855.787 1203.44 871.736 1151.69 871.736C1119.33 871.736 1090.74 864.391 1065.9 849.701C1041.07 835.012 1021.99 813.92 1008.63 786.429C995.276 758.939 988.587 727.043 988.587 690.737C988.587 634.288 1002.99 590.219 1031.8 558.531C1060.58 526.844 1101.19 511 1153.57 511C1203.66 511 1243.3 527.263 1272.51 559.791C1301.73 592.108 1316.34 635.756 1316.34 690.737ZM1064.34 690.737C1064.34 771.112 1093.88 811.299 1152.92 811.299C1211.37 811.299 1240.59 771.112 1240.59 690.737C1240.59 611.203 1211.16 571.437 1152.3 571.437C1121.42 571.437 1098.99 581.72 1085.01 602.285C1071.23 622.85 1064.34 652.335 1064.34 690.737Z" fill="#2F80ED"/>
</svg>
